<?xml version="1.0" encoding="UTF-8" standalone="no"?>
<!DOCTYPE svg PUBLIC "-//W3C//DTD SVG 1.1//EN"
 "http://www.w3.org/Graphics/SVG/1.1/DTD/svg11.dtd">
<!-- Generated by graphviz version 15.0.0 (20260523.1842)
 -->
<!-- Title: stack Pages: 1 -->
<svg width="1479pt" height="426pt"
 viewBox="0.00 0.00 1479.00 426.00" xmlns="http://www.w3.org/2000/svg" xmlns:xlink="http://www.w3.org/1999/xlink">
<g id="graph0" class="graph" transform="scale(1 1) rotate(0) translate(28.8 396.8)">
<title>stack</title>
<polygon fill="white" stroke="none" points="-28.8,28.8 -28.8,-396.8 1450.55,-396.8 1450.55,28.8 -28.8,28.8"/>
<g id="clust1" class="cluster">
<title>cluster_mac</title>
<path fill="#eef4fb" stroke="#9bbbe0" d="M20,-225C20,-225 366.88,-225 366.88,-225 372.88,-225 378.88,-231 378.88,-237 378.88,-237 378.88,-348 378.88,-348 378.88,-354 372.88,-360 366.88,-360 366.88,-360 20,-360 20,-360 14,-360 8,-354 8,-348 8,-348 8,-237 8,-237 8,-231 14,-225 20,-225"/>
<text xml:space="preserve" text-anchor="middle" x="45.25" y="-343.65" font-family="Helvetica,sans-Serif" font-weight="bold" font-size="13.00">Your Mac</text>
</g>
<g id="clust2" class="cluster">
<title>cluster_spark</title>
<path fill="#f4f7f4" stroke="#aac0aa" d="M250.75,-8C250.75,-8 1401.75,-8 1401.75,-8 1407.75,-8 1413.75,-14 1413.75,-20 1413.75,-20 1413.75,-205 1413.75,-205 1413.75,-211 1407.75,-217 1401.75,-217 1401.75,-217 250.75,-217 250.75,-217 244.75,-217 238.75,-211 238.75,-205 238.75,-205 238.75,-20 238.75,-20 238.75,-14 244.75,-8 250.75,-8"/>
<text xml:space="preserve" text-anchor="middle" x="511.12" y="-200.65" font-family="Helvetica,sans-Serif" font-weight="bold" font-size="13.00">DGX Spark · dgx.zrh.arts.moe &#160;(GB10 · 119 GiB unified · ARM64 / sm_121 · CUDA 13)</text>
</g>
<g id="clust3" class="cluster">
<title>cluster_img</title>
<path fill="#eafaef" stroke="#9fd6ad" d="M788.62,-105C788.62,-105 1123,-105 1123,-105 1129,-105 1135,-111 1135,-117 1135,-117 1135,-175 1135,-175 1135,-181 1129,-187 1123,-187 1123,-187 788.62,-187 788.62,-187 782.62,-187 776.62,-181 776.62,-175 776.62,-175 776.62,-117 776.62,-117 776.62,-111 782.62,-105 788.62,-105"/>
<text xml:space="preserve" text-anchor="middle" x="840.12" y="-170.65" font-family="Helvetica,sans-Serif" font-weight="bold" font-size="13.00">Image generation</text>
</g>
<g id="clust4" class="cluster">
<title>cluster_llm</title>
<path fill="#f5eefb" stroke="#c8a8e0" d="M258.75,-16C258.75,-16 1083.62,-16 1083.62,-16 1089.62,-16 1095.62,-22 1095.62,-28 1095.62,-28 1095.62,-85 1095.62,-85 1095.62,-91 1089.62,-97 1083.62,-97 1083.62,-97 258.75,-97 258.75,-97 252.75,-97 246.75,-91 246.75,-85 246.75,-85 246.75,-28 246.75,-28 246.75,-22 252.75,-16 258.75,-16"/>
<text xml:space="preserve" text-anchor="middle" x="297.12" y="-80.65" font-family="Helvetica,sans-Serif" font-weight="bold" font-size="13.00">Chat / agents</text>
</g>
<!-- cmd -->
<g id="node1" class="node">
<title>cmd</title>
<path fill="#cfe3fb" stroke="#7f8c8d" stroke-width="1.2" d="M118.62,-330C118.62,-330 33.62,-330 33.62,-330 27.62,-330 21.62,-324 21.62,-318 21.62,-318 21.62,-306 21.62,-306 21.62,-300 27.62,-294 33.62,-294 33.62,-294 118.62,-294 118.62,-294 124.62,-294 130.62,-300 130.62,-306 130.62,-306 130.62,-318 130.62,-318 130.62,-324 124.62,-330 118.62,-330"/>
<text xml:space="preserve" text-anchor="middle" x="76.12" y="-313.55" font-family="Helvetica,sans-Serif" font-size="11.00">ComfyUI.command</text>
<text xml:space="preserve" text-anchor="middle" x="76.12" y="-301.55" font-family="Helvetica,sans-Serif" font-size="11.00">(double&#45;click)</text>
</g>
<!-- ccon -->
<g id="node2" class="node">
<title>ccon</title>
<path fill="#dbeafe" stroke="#7f8c8d" stroke-width="1.2" d="M358.88,-286C358.88,-286 274.62,-286 274.62,-286 268.62,-286 262.62,-280 262.62,-274 262.62,-274 262.62,-262 262.62,-262 262.62,-256 268.62,-250 274.62,-250 274.62,-250 358.88,-250 358.88,-250 364.88,-250 370.88,-256 370.88,-262 370.88,-262 370.88,-274 370.88,-274 370.88,-280 364.88,-286 358.88,-286"/>
<text xml:space="preserve" text-anchor="middle" x="316.75" y="-263.55" font-family="Helvetica,sans-Serif" font-size="11.00">comfyui&#45;connect.sh</text>
</g>
<!-- cmd&#45;&gt;ccon -->
<g id="edge1" class="edge">
<title>cmd&#45;&gt;ccon</title>
<path fill="none" stroke="#5b7aa8" stroke-width="1.2" stroke-dasharray="1,5" d="M130.97,-302.07C166.48,-295.52 213.18,-286.91 250.75,-279.98"/>
<polygon fill="#5b7aa8" stroke="#5b7aa8" stroke-width="1.2" points="251.11,-283.48 260.31,-278.22 249.84,-276.59 251.11,-283.48"/>
<text xml:space="preserve" text-anchor="middle" x="195.5" y="-295.14" font-family="Helvetica,sans-Serif" font-size="9.00" fill="#5b7aa8">runs</text>
</g>
<!-- comfy -->
<g id="node4" class="node">
<title>comfy</title>
<path fill="#cdeed8" stroke="#7f8c8d" stroke-width="1.2" d="M860.62,-156C860.62,-156 796.62,-156 796.62,-156 790.62,-156 784.62,-150 784.62,-144 784.62,-144 784.62,-132 784.62,-132 784.62,-126 790.62,-120 796.62,-120 796.62,-120 860.62,-120 860.62,-120 866.62,-120 872.62,-126 872.62,-132 872.62,-132 872.62,-144 872.62,-144 872.62,-150 866.62,-156 860.62,-156"/>
<text xml:space="preserve" text-anchor="middle" x="828.62" y="-139.55" font-family="Helvetica,sans-Serif" font-size="11.00">ComfyUI</text>
<text xml:space="preserve" text-anchor="middle" x="828.62" y="-127.55" font-family="Helvetica,sans-Serif" font-size="11.00">127.0.0.1:8188</text>
</g>
<!-- ccon&#45;&gt;comfy -->
<g id="edge8" class="edge">
<title>ccon&#45;&gt;comfy</title>
<path fill="none" stroke="#e08a2b" stroke-width="2.4" d="M371.35,-254.33C468.4,-229.59 672.3,-177.6 771.31,-152.36"/>
<polygon fill="#e08a2b" stroke="#e08a2b" stroke-width="2.4" points="771.93,-155.81 780.75,-149.95 770.2,-149.03 771.93,-155.81"/>
<text xml:space="preserve" text-anchor="middle" x="540.38" y="-236.46" font-family="Helvetica,sans-Serif" font-size="9.00" fill="#b9700f">ssh &#45;L 8188</text>
</g>
<!-- ncon -->
<g id="node3" class="node">
<title>ncon</title>
<path fill="#dbeafe" stroke="#7f8c8d" stroke-width="1.2" d="M124.25,-269C124.25,-269 28,-269 28,-269 22,-269 16,-263 16,-257 16,-257 16,-245 16,-245 16,-239 22,-233 28,-233 28,-233 124.25,-233 124.25,-233 130.25,-233 136.25,-239 136.25,-245 136.25,-245 136.25,-257 136.25,-257 136.25,-263 130.25,-269 124.25,-269"/>
<text xml:space="preserve" text-anchor="middle" x="76.12" y="-246.55" font-family="Helvetica,sans-Serif" font-size="11.00">nemoclaw&#45;connect.sh</text>
</g>
<!-- dash -->
<g id="node6" class="node">
<title>dash</title>
<path fill="#e7d4fa" stroke="#7f8c8d" stroke-width="1.2" d="M366.75,-67C366.75,-67 266.75,-67 266.75,-67 260.75,-67 254.75,-61 254.75,-55 254.75,-55 254.75,-43 254.75,-43 254.75,-37 260.75,-31 266.75,-31 266.75,-31 366.75,-31 366.75,-31 372.75,-31 378.75,-37 378.75,-43 378.75,-43 378.75,-55 378.75,-55 378.75,-61 372.75,-67 366.75,-67"/>
<text xml:space="preserve" text-anchor="middle" x="316.75" y="-50.55" font-family="Helvetica,sans-Serif" font-size="11.00">NemoClaw dashboard</text>
<text xml:space="preserve" text-anchor="middle" x="316.75" y="-38.55" font-family="Helvetica,sans-Serif" font-size="11.00">127.0.0.1:18789</text>
</g>
<!-- ncon&#45;&gt;dash -->
<g id="edge9" class="edge">
<title>ncon&#45;&gt;dash</title>
<path fill="none" stroke="#e08a2b" stroke-width="2.4" d="M98.72,-232.72C140.94,-196.98 234.59,-117.71 283.92,-75.94"/>
<polygon fill="#e08a2b" stroke="#e08a2b" stroke-width="2.4" points="285.89,-78.87 291.26,-69.73 281.36,-73.52 285.89,-78.87"/>
<text xml:space="preserve" text-anchor="middle" x="195.5" y="-169.29" font-family="Helvetica,sans-Serif" font-size="9.00" fill="#b9700f">ssh &#45;L 18789</text>
</g>
<!-- qmodels -->
<g id="node5" class="node">
<title>qmodels</title>
<path fill="#e3f6e9" stroke="#7f8c8d" stroke-width="1.2" d="M1115,-157C1115,-157 982,-157 982,-157 976,-157 970,-151 970,-145 970,-145 970,-125 970,-125 970,-119 976,-113 982,-113 982,-113 1115,-113 1115,-113 1121,-113 1127,-119 1127,-125 1127,-125 1127,-145 1127,-145 1127,-151 1121,-157 1115,-157"/>
<text xml:space="preserve" text-anchor="middle" x="1048.5" y="-142.55" font-family="Helvetica,sans-Serif" font-size="11.00">Qwen&#45;Image 2512</text>
<text xml:space="preserve" text-anchor="middle" x="1048.5" y="-130.55" font-family="Helvetica,sans-Serif" font-size="11.00">FP8 20.4 GB · BF16 40.8 GB</text>
<text xml:space="preserve" text-anchor="middle" x="1048.5" y="-118.55" font-family="Helvetica,sans-Serif" font-size="11.00">+ anime LoRAs</text>
</g>
<!-- comfy&#45;&gt;qmodels -->
<g id="edge2" class="edge">
<title>comfy&#45;&gt;qmodels</title>
<path fill="none" stroke="#5d6d7e" stroke-width="1.2" d="M873.19,-137.4C897.53,-137.06 928.78,-136.63 958.07,-136.23"/>
<polygon fill="#5d6d7e" stroke="#5d6d7e" stroke-width="1.2" points="957.85,-139.73 967.8,-136.1 957.76,-132.74 957.85,-139.73"/>
</g>
<!-- gpu -->
<g id="node10" class="node">
<title>gpu</title>
<path fill="#fbe0e0" stroke="#e0a0a0" stroke-width="1.2" d="M1393.75,-110C1393.75,-110 1206,-110 1206,-110 1200,-110 1194,-104 1194,-98 1194,-98 1194,-86 1194,-86 1194,-80 1200,-74 1206,-74 1206,-74 1393.75,-74 1393.75,-74 1399.75,-74 1405.75,-80 1405.75,-86 1405.75,-86 1405.75,-98 1405.75,-98 1405.75,-104 1399.75,-110 1393.75,-110"/>
<text xml:space="preserve" text-anchor="middle" x="1299.88" y="-87.55" font-family="Helvetica,sans-Serif" font-weight="bold" font-size="11.00">GB10 GPU &#160;· &#160;119 GiB unified memory</text>
</g>
<!-- qmodels&#45;&gt;gpu -->
<g id="edge6" class="edge">
<title>qmodels&#45;&gt;gpu</title>
<path fill="none" stroke="#c98e8e" stroke-width="1.2" stroke-dasharray="5,2" d="M1127.38,-121.57C1148.39,-117.95 1171.47,-113.97 1193.7,-110.14"/>
</g>
<!-- sandbox -->
<g id="node7" class="node">
<title>sandbox</title>
<path fill="#efe2fb" stroke="#7f8c8d" stroke-width="1.2" d="M623,-67C623,-67 457.75,-67 457.75,-67 451.75,-67 445.75,-61 445.75,-55 445.75,-55 445.75,-43 445.75,-43 445.75,-37 451.75,-31 457.75,-31 457.75,-31 623,-31 623,-31 629,-31 635,-37 635,-43 635,-43 635,-55 635,-55 635,-61 629,-67 623,-67"/>
<text xml:space="preserve" text-anchor="middle" x="540.38" y="-50.55" font-family="Helvetica,sans-Serif" font-size="11.00">OpenShell sandbox &#39;spark&#45;assistant&#39;</text>
<text xml:space="preserve" text-anchor="middle" x="540.38" y="-38.55" font-family="Helvetica,sans-Serif" font-size="11.00">+ OpenClaw agent</text>
</g>
<!-- dash&#45;&gt;sandbox -->
<g id="edge3" class="edge">
<title>dash&#45;&gt;sandbox</title>
<path fill="none" stroke="#5d6d7e" stroke-width="1.2" d="M379.19,-49C396.16,-49 415.08,-49 433.8,-49"/>
<polygon fill="#5d6d7e" stroke="#5d6d7e" stroke-width="1.2" points="433.59,-52.5 443.59,-49 433.59,-45.5 433.59,-52.5"/>
</g>
<!-- ollama -->
<g id="node8" class="node">
<title>ollama</title>
<path fill="#e7d4fa" stroke="#7f8c8d" stroke-width="1.2" d="M891,-67C891,-67 766.25,-67 766.25,-67 760.25,-67 754.25,-61 754.25,-55 754.25,-55 754.25,-43 754.25,-43 754.25,-37 760.25,-31 766.25,-31 766.25,-31 891,-31 891,-31 897,-31 903,-37 903,-43 903,-43 903,-55 903,-55 903,-61 897,-67 891,-67"/>
<text xml:space="preserve" text-anchor="middle" x="828.62" y="-50.55" font-family="Helvetica,sans-Serif" font-size="11.00">Ollama</text>
<text xml:space="preserve" text-anchor="middle" x="828.62" y="-38.55" font-family="Helvetica,sans-Serif" font-size="11.00">:11434 &#160;(auth proxy :11435)</text>
</g>
<!-- sandbox&#45;&gt;ollama -->
<g id="edge4" class="edge">
<title>sandbox&#45;&gt;ollama</title>
<path fill="none" stroke="#5d6d7e" stroke-width="1.2" d="M635.5,-49C669.9,-49 708.6,-49 742.2,-49"/>
<polygon fill="#5d6d7e" stroke="#5d6d7e" stroke-width="1.2" points="742.04,-52.5 752.04,-49 742.04,-45.5 742.04,-52.5"/>
<text xml:space="preserve" text-anchor="middle" x="694.62" y="-59.4" font-family="Helvetica,sans-Serif" font-size="8.00">host.openshell</text>
<text xml:space="preserve" text-anchor="middle" x="694.62" y="-50.4" font-family="Helvetica,sans-Serif" font-size="8.00">.internal:11435</text>
</g>
<!-- llms -->
<g id="node9" class="node">
<title>llms</title>
<path fill="#efe2fb" stroke="#7f8c8d" stroke-width="1.2" d="M1075.62,-67C1075.62,-67 1021.38,-67 1021.38,-67 1015.38,-67 1009.38,-61 1009.38,-55 1009.38,-55 1009.38,-43 1009.38,-43 1009.38,-37 1015.38,-31 1021.38,-31 1021.38,-31 1075.62,-31 1075.62,-31 1081.62,-31 1087.62,-37 1087.62,-43 1087.62,-43 1087.62,-55 1087.62,-55 1087.62,-61 1081.62,-67 1075.62,-67"/>
<text xml:space="preserve" text-anchor="middle" x="1048.5" y="-50.55" font-family="Helvetica,sans-Serif" font-size="11.00">qwen3.6:35b</text>
<text xml:space="preserve" text-anchor="middle" x="1048.5" y="-38.55" font-family="Helvetica,sans-Serif" font-size="11.00">gpt&#45;oss:120b</text>
</g>
<!-- ollama&#45;&gt;llms -->
<g id="edge5" class="edge">
<title>ollama&#45;&gt;llms</title>
<path fill="none" stroke="#5d6d7e" stroke-width="1.2" d="M903.39,-49C934.39,-49 969.65,-49 997.53,-49"/>
<polygon fill="#5d6d7e" stroke="#5d6d7e" stroke-width="1.2" points="997.18,-52.5 1007.18,-49 997.18,-45.5 997.18,-52.5"/>
</g>
<!-- llms&#45;&gt;gpu -->
<g id="edge7" class="edge">
<title>llms&#45;&gt;gpu</title>
<path fill="none" stroke="#c98e8e" stroke-width="1.2" stroke-dasharray="5,2" d="M1088.19,-55.67C1116.44,-60.54 1156.18,-67.39 1193.53,-73.84"/>
</g>
</g>
</svg>
